<svg viewBox="0 0 4267 4267" xmlns="http://www.w3.org/2000/svg" fillRule="evenodd" clipRule="evenodd" strokeLinejoin="round" strokeMiterlimit="2">
  <g id="Background">
    <path d="M4265.846,3467.744c-67.916,888.854 -862.975,794.978 -1039.947,794.909c-2496.968,-0.982 -2499.212,8.166 -2642.314,-29.941c-677.9,-180.52 -578.448,-952.388 -578.489,-1048.009c-1.044,-2446.981 -2.987,-2448.045 21.188,-2552.834c166.033,-719.7 880.05,-627.998 1083.118,-628.173c191.031,-0.165 2347.632,-2.029 2387.889,0.527c509.334,32.337 759.661,413.265 768.317,768.87c1.466,60.221 1.279,2517.699 0.238,2694.652Z" fill="rgb(75, 144, 200)"/>
    <path d="M1168.613,1858.048c-6.423,-25.743 -55.407,-222.071 71.061,-323.962c53.787,-43.334 65.726,9.434 301.609,-26.04c15.917,-2.394 174.573,-30.137 180.597,-4.199c63.527,273.535 65.82,459.431 454.765,432.757c280.082,-19.208 245.52,-135.672 349.165,-376.986c12.221,-28.455 103.45,-31.771 115.268,-5.371c34.334,76.701 83.073,260.299 138.997,324.461c59.855,68.672 263.186,51.663 286.355,49.725c1.605,5.104 -51.615,582.41 -213.681,716.621c-95.7,79.251 -573.793,254.919 -1138.358,-170.182c-62.804,-47.29 128.298,389.502 646.78,464.893c218.624,31.789 305.556,-30.194 310.17,1.445c61.387,420.97 -371.396,783.858 -515.731,915.747c-18.995,17.357 -34.763,31.765 -321.182,1.47c-445.638,-47.136 -436.711,-145.516 -565.905,-300.479c-391.794,-469.94 -604.482,-292.519 -566.454,-403.589c40.123,-117.186 328.413,-263.532 360.988,-280.069c312.746,-158.761 379.217,-209.405 364.085,-754.896c-1.628,-58.696 -130.816,38.25 -258.528,-261.345Z" fill="#fefefe"/>
    <path d="M2996.171,1304.084c-277.772,5.203 -330.548,77.153 -483.35,42.61c-589.149,-133.185 -674.129,-38.015 -1204.716,81.207c-138.141,31.04 -164.133,92.82 -184.938,146.842c-6.454,-9.447 -13.817,-20.225 -56.747,-131.348c-152.458,-394.634 69.202,-580.809 187.249,-599.145c54.389,-8.448 50.806,-16.941 83.958,-62.207c291.733,-398.343 1390.964,-627.125 1425.732,-34.663c0.731,12.453 7.262,4.768 42.519,-0.56c164.464,-24.857 235.953,163.351 77.11,290.535c-18.574,14.872 106.798,232.993 113.183,266.729Z" fill="#fefefe"/>
    <path d="M2996.171,1304.084c28.213,0.417 80.485,-9.102 303.209,33.619c61.087,11.717 44.848,76.431 41.237,128.246c-3.653,52.418 -39.634,36.258 -47.38,81.606c-48.556,284.287 -55.006,336.367 -226.809,380.877c-23.169,1.938 -226.5,18.947 -286.355,-49.725c-55.925,-64.163 -104.663,-247.761 -138.997,-324.461c-11.817,-26.399 -103.046,-23.083 -115.268,5.371c-103.644,241.314 -69.082,357.778 -349.165,376.986c-388.945,26.674 -391.238,-159.222 -454.765,-432.757c-6.024,-25.938 -164.68,1.805 -180.597,4.199c-235.883,35.474 -247.822,-17.295 -301.609,26.04c-126.468,101.892 -77.484,298.22 -71.061,323.962c-14.88,-5.889 -15.492,-5.101 -16.071,-6.36c-71.225,-155.017 -35.385,-242.97 -29.375,-276.945c20.805,-54.022 46.797,-115.802 184.938,-146.842c530.586,-119.223 615.567,-214.393 1204.716,-81.207c152.802,34.543 205.578,-37.406 483.35,-42.61Z" fill="#1e2f34"/>
    <path d="M2860.252,2852.041c534.794,51.843 716.19,548.399 708.469,561.701c-134.086,231.012 -523.356,386.564 -518.225,366.107c100.017,-398.719 0.468,-699.734 -1.451,-648.156c-2.23,59.939 -14.76,396.759 -250.347,706.45c-20.484,26.928 -349.176,38.973 -378.012,40.511c-1.795,0.096 -30.566,1.63 -19.977,-10.316c503.895,-568.439 458.573,-760.658 435.938,-1008.647c-0.915,-10.026 4.388,-5.595 23.604,-7.65Z" fill="#fefefe"/>
  </g>
</svg>
